<svg xmlns="http://www.w3.org/2000/svg" viewBox="0 0 85.04 85.04"><defs><style>.cls-1,.cls-2{fill:none;stroke:#ee7330;}.cls-1{stroke-miterlimit:10;}.cls-2{stroke-linecap:round;stroke-linejoin:round;}</style></defs><g id="Commodity_and_segment_icons" data-name="Commodity and segment icons"><path class="cls-1" d="M35.45,27.14l-4.58-4.58a.86.86,0,0,0-.61-.25H23.42a.85.85,0,0,0-.6,1.45l8,8"/><path class="cls-1" d="M33.92,34.87l4.67,4.67a.85.85,0,0,0,1.2,0l3.42-3.43a.85.85,0,0,0,0-1.2l-4.66-4.67"/><path class="cls-1" d="M66.32,69.26a35.42,35.42,0,1,0-24.59,9.93V64.43"/><path class="cls-1" d="M58,31.67l12,12a6.42,6.42,0,0,1,0,9.08l-4.55,4.54a6.4,6.4,0,0,1-9.07,0L42.79,43.73a.45.45,0,0,1-.13-.39.43.43,0,0,1,.13-.27L54.27,31.59"/><path class="cls-1" d="M58,31.67l12,12a6.42,6.42,0,0,1,0,9.08l-4.55,4.54a6.4,6.4,0,0,1-9.07,0L42.79,43.73a.45.45,0,0,1-.13-.39.43.43,0,0,1,.13-.27L54.27,31.59"/><path class="cls-1" d="M54.16,38.28V10.57M58,38.28v-26"/><path class="cls-1" d="M58,38.28a1.92,1.92,0,1,1-1.92-1.92A1.92,1.92,0,0,1,58,38.28"/><circle class="cls-1" cx="56.08" cy="38.28" r="1.92"/><path class="cls-2" d="M41.73,47.22s-4,7.29-4,10a3.77,3.77,0,0,0,4,4,3.76,3.76,0,0,0,4.05-4C45.78,54.51,41.73,47.22,41.73,47.22Z"/><path class="cls-1" d="M39.88,28.91a1.3,1.3,0,0,0,0-1.83l-1.27-1.27a1.3,1.3,0,0,0-1.83,0l-1.33,1.33,3.1,3.1Z"/><path class="cls-1" d="M13.16,49.43a1.3,1.3,0,0,0,0,1.83l1.27,1.27a1.29,1.29,0,0,0,1.83,0L33.92,34.87l-3.1-3.1Z"/></g></svg>