<svg xmlns="http://www.w3.org/2000/svg" viewBox="0 0 85.04 85.04"><defs><style>.cls-1{fill:none;stroke:#0669b2;stroke-linejoin:round;}</style></defs><g id="Commodity_and_segment_icons" data-name="Commodity and segment icons"><rect class="cls-1" x="55.69" y="27.05" width="8.94" height="10.09" transform="translate(120.32 64.2) rotate(-180)"/><path class="cls-1" d="M41.8,54.68H65.27L68.8,37.14H55.69V46.9H24.59V42.44H13l6.74,12.24H37.92V78.94a35,35,0,0,1-9.26-2.5,35.64,35.64,0,0,1,0-65.57A35.47,35.47,0,0,1,75.1,29.81a35.62,35.62,0,0,1-7.6,39"/><line class="cls-1" x1="55.69" y1="37.14" x2="55.69" y2="19.97"/><rect class="cls-1" x="24.59" y="42.44" width="26.71" height="4.46"/><line class="cls-1" x1="33.41" y1="42.44" x2="33.41" y2="46.95"/><line class="cls-1" x1="42.45" y1="42.44" x2="42.45" y2="46.95"/></g></svg>