<?xml version="1.0" encoding="UTF-8"?>
<svg xmlns="http://www.w3.org/2000/svg" xmlns:xlink="http://www.w3.org/1999/xlink" viewBox="0 0 1601 901">
  <defs>
    <style>
      .cls-1 {
        clip-path: url(#clippath-3);
      }

      .cls-2, .cls-3, .cls-4, .cls-5, .cls-6 {
        fill: #fff;
      }

      .cls-7, .cls-8 {
        stroke-width: 2.39px;
      }

      .cls-7, .cls-8, .cls-9, .cls-5, .cls-10 {
        stroke: #fff;
      }

      .cls-7, .cls-8, .cls-9, .cls-11, .cls-10 {
        fill: none;
      }

      .cls-7, .cls-5, .cls-12 {
        stroke-miterlimit: 10;
      }

      .cls-3 {
        font-size: 19.28px;
      }

      .cls-3, .cls-4, .cls-6 {
        font-family: Montserrat-SemiBold, Montserrat;
      }

      .cls-13 {
        letter-spacing: -.01em;
      }

      .cls-14 {
        clip-path: url(#clippath-2);
      }

      .cls-4 {
        font-size: 27.05px;
      }

      .cls-15 {
        letter-spacing: 0em;
      }

      .cls-8, .cls-9, .cls-10 {
        stroke-linecap: round;
        stroke-linejoin: round;
      }

      .cls-16 {
        clip-path: url(#clippath-4);
      }

      .cls-17 {
        letter-spacing: 0em;
      }

      .cls-18 {
        clip-path: url(#clippath-7);
      }

      .cls-19 {
        letter-spacing: 0em;
      }

      .cls-9 {
        stroke-width: 12.63px;
      }

      .cls-20 {
        letter-spacing: 0em;
      }

      .cls-21 {
        letter-spacing: 0em;
      }

      .cls-22 {
        letter-spacing: 0em;
      }

      .cls-23 {
        letter-spacing: -.03em;
      }

      .cls-24 {
        letter-spacing: 0em;
      }

      .cls-25 {
        letter-spacing: 0em;
      }

      .cls-26 {
        letter-spacing: -.02em;
      }

      .cls-27 {
        clip-path: url(#clippath-5);
      }

      .cls-28 {
        clip-path: url(#clippath);
      }

      .cls-5 {
        stroke-width: 1.27px;
      }

      .cls-29 {
        fill: #054570;
      }

      .cls-30 {
        letter-spacing: -.03em;
      }

      .cls-31 {
        letter-spacing: -.02em;
      }

      .cls-32 {
        letter-spacing: -.02em;
      }

      .cls-33, .cls-12 {
        fill: #0068a0;
      }

      .cls-34 {
        letter-spacing: -.03em;
      }

      .cls-12 {
        stroke: #231f20;
      }

      .cls-35 {
        letter-spacing: -.01em;
      }

      .cls-6 {
        font-size: 28.58px;
      }

      .cls-36 {
        letter-spacing: .02em;
      }

      .cls-37 {
        letter-spacing: 0em;
      }

      .cls-38 {
        letter-spacing: -.01em;
      }

      .cls-39 {
        letter-spacing: 0em;
      }

      .cls-40 {
        letter-spacing: 0em;
      }

      .cls-41 {
        letter-spacing: 0em;
      }

      .cls-42 {
        letter-spacing: -.03em;
      }

      .cls-43 {
        letter-spacing: -.01em;
      }

      .cls-44 {
        fill: #76b4cf;
      }

      .cls-45 {
        clip-path: url(#clippath-1);
      }

      .cls-46 {
        letter-spacing: 0em;
      }

      .cls-10 {
        stroke-width: 3.06px;
      }

      .cls-47 {
        letter-spacing: -.03em;
      }
    </style>
    <clipPath id="clippath">
      <rect class="cls-11" x="252.01" y="171.74" width="1094.68" height="557.52"/>
    </clipPath>
    <clipPath id="clippath-1">
      <rect class="cls-11" x="252.01" y="171.74" width="1094.68" height="557.52"/>
    </clipPath>
    <clipPath id="clippath-2">
      <rect class="cls-11" x="252.01" y="171.74" width="1094.68" height="557.52"/>
    </clipPath>
    <clipPath id="clippath-3">
      <rect class="cls-11" x="252.01" y="171.74" width="1094.68" height="557.52"/>
    </clipPath>
    <clipPath id="clippath-4">
      <rect class="cls-11" x="252.01" y="171.74" width="1094.68" height="557.52"/>
    </clipPath>
    <clipPath id="clippath-5">
      <rect class="cls-11" x="457.3" y="335.21" width="135.81" height="134.06"/>
    </clipPath>
    <clipPath id="clippath-7">
      <rect class="cls-11" x="457.3" y="335.21" width="135.81" height="134.05"/>
    </clipPath>
  </defs>
  <g id="Layer_2" data-name="Layer 2">
    <rect class="cls-12" x=".5" y=".5" width="1600" height="900"/>
  </g>
  <g id="Layer_1" data-name="Layer 1">
    <g class="cls-28">
      <path class="cls-44" d="M924.42,347.52c14.5-21.42,33.91-39.97,57.87-53.78,84.56-48.76,192.31-19.81,241.06,64.74,48.75,84.56,19.82,192.31-64.73,241.06-80.66,46.51-182.42,22.29-233.86-53.26-2.18-3.16-73.88-99.1-73.88-99.1"/>
      <path class="cls-29" d="M672.51,347.52c-14.5-21.42-33.91-39.97-57.87-53.78-84.56-48.76-192.31-19.81-241.06,64.74-48.75,84.56-19.82,192.31,64.73,241.06,80.66,46.51,182.42,22.29,233.86-53.26,2.18-3.16,73.88-99.1,73.88-99.1"/>
    </g>
    <text class="cls-6" transform="translate(457.35 525.66)"><tspan class="cls-42" x="0" y="0">I</tspan><tspan class="cls-31" x="8.37" y="0">n</tspan><tspan class="cls-30" x="27.35" y="0">d</tspan><tspan class="cls-26" x="46.22" y="0">u</tspan><tspan class="cls-19" x="65.26" y="0">s</tspan><tspan class="cls-34" x="79.86" y="0">t</tspan><tspan class="cls-47" x="91.15" y="0">r</tspan><tspan class="cls-23" x="102.22" y="0">ia</tspan><tspan class="cls-20" x="126.28" y="0">l </tspan></text>
    <text class="cls-6" transform="translate(597.87 525.66)"><tspan x="0" y="0"> </tspan></text>
    <text class="cls-4" transform="translate(1015.66 514.76)"><tspan class="cls-32" x="0" y="0">M</tspan><tspan class="cls-38" x="25.26" y="0">a</tspan><tspan class="cls-39" x="41.33" y="0">r</tspan><tspan class="cls-38" x="52.47" y="0">k</tspan><tspan class="cls-22" x="69.32" y="0">e</tspan><tspan x="86.03" y="0">t</tspan><tspan class="cls-22" x="97.5" y="0">i</tspan><tspan class="cls-38" x="105.21" y="0">n</tspan><tspan x="123.38" y="0">g</tspan></text>
    <text class="cls-4" transform="translate(1026.56 546.69)"><tspan class="cls-35" x="0" y="0">b</tspan><tspan class="cls-24" x="18.15" y="0">u</tspan><tspan class="cls-41" x="36.38" y="0">si</tspan><tspan class="cls-39" x="57.91" y="0">n</tspan><tspan class="cls-40" x="76.22" y="0">e</tspan><tspan class="cls-21" x="92.93" y="0">s</tspan><tspan class="cls-25" x="106.62" y="0">s</tspan></text>
    <g class="cls-45">
      <path class="cls-9" d="M720.97,282.02c-46.34-60.23-109.12-86.02-190.98-86.02-139.98,0-253.45,113.47-253.45,253.45s113.47,253.45,253.45,253.45c100.34,0,187.07-58.32,228.13-142.91"/>
      <polygon class="cls-2" points="730.99 295.05 734.41 258.48 694.76 288.98 730.99 295.05"/>
    </g>
    <polygon class="cls-2" points="252.01 462.98 300.36 462.98 276.19 438.29 252.01 462.98"/>
    <polygon class="cls-2" points="350.39 271.56 315.85 272.53 350.63 306.11 350.39 271.56"/>
    <polygon class="cls-2" points="506.07 171.74 506.07 220.09 530.76 195.92 506.07 171.74"/>
    <polygon class="cls-2" points="510.56 701.75 535.98 725.16 534.5 676.83 510.56 701.75"/>
    <polygon class="cls-2" points="335.29 610.79 336.11 645.33 369.84 610.7 335.29 610.79"/>
    <g class="cls-14">
      <path class="cls-9" d="M877.74,618.61c46.34,60.23,109.12,86.02,190.98,86.02,139.98,0,253.45-113.47,253.45-253.45s-113.47-253.45-253.45-253.45c-100.34,0-187.07,58.32-228.13,142.91"/>
      <polygon class="cls-2" points="867.72 605.58 864.3 642.15 903.94 611.65 867.72 605.58"/>
    </g>
    <polygon class="cls-2" points="1298.34 437.65 1322.51 462.34 1346.69 437.65 1298.34 437.65"/>
    <polygon class="cls-2" points="1250.67 626.65 1285.21 625.68 1250.43 592.09 1250.67 626.65"/>
    <polygon class="cls-2" points="1067.94 705.08 1092.63 729.26 1092.63 680.91 1067.94 705.08"/>
    <polygon class="cls-2" points="1088.14 198.88 1062.73 175.47 1064.2 223.8 1088.14 198.88"/>
    <polygon class="cls-2" points="1263.41 289.84 1262.6 255.3 1228.86 289.93 1263.41 289.84"/>
    <g class="cls-1">
      <path class="cls-33" d="M853.43,558.68c22.05-26.8,20.54-66.48-4.51-91.53-26.65-26.65-69.86-26.65-96.51,0"/>
      <path class="cls-10" d="M853.43,558.68c22.05-26.8,20.54-66.48-4.51-91.53-26.65-26.65-69.86-26.65-96.51,0"/>
      <path class="cls-33" d="M747.2,472.84c-22.05,26.8-20.54,66.48,4.51,91.53,26.65,26.65,69.86,26.65,96.51,0"/>
      <path class="cls-10" d="M747.2,472.84c-22.05,26.8-20.54,66.48,4.51,91.53,26.65,26.65,69.86,26.65,96.51,0"/>
    </g>
    <polygon class="cls-2" points="837.78 561.79 850.1 562.32 849.56 574.64 837.78 561.79"/>
    <polygon class="cls-2" points="762.36 469.63 750.04 469.09 750.58 456.77 762.36 469.63"/>
    <g>
      <path class="cls-2" d="M759.62,508.48c0-3.84,2.94-6.61,6.89-6.61,2.09,0,3.89,.75,5.09,2.15l-1.54,1.45c-.94-1.01-2.09-1.51-3.44-1.51-2.66,0-4.59,1.87-4.59,4.52s1.93,4.52,4.59,4.52c1.34,0,2.5-.5,3.44-1.53l1.54,1.47c-1.19,1.4-2.99,2.15-5.11,2.15-3.93,0-6.87-2.77-6.87-6.61Z"/>
      <path class="cls-2" d="M782,509.16v5.75h-2.17v-1.19c-.55,.85-1.62,1.32-3.09,1.32-2.24,0-3.66-1.23-3.66-2.94s1.1-2.92,4.08-2.92h2.54v-.15c0-1.34-.81-2.13-2.44-2.13-1.1,0-2.24,.37-2.98,.97l-.9-1.67c1.05-.81,2.57-1.21,4.15-1.21,2.83,0,4.46,1.34,4.46,4.17Zm-2.3,2.68v-1.14h-2.37c-1.56,0-1.98,.59-1.98,1.3,0,.83,.7,1.36,1.87,1.36s2.09-.51,2.48-1.53Z"/>
      <path class="cls-2" d="M790.47,504.99v2.19c-.2-.04-.37-.05-.53-.05-1.75,0-2.85,1.03-2.85,3.03v4.76h-2.3v-9.81h2.19v1.43c.66-1.03,1.86-1.54,3.49-1.54Z"/>
      <path class="cls-2" d="M802.86,510.01c0,3.05-2.11,5.03-4.98,5.03-1.34,0-2.48-.46-3.25-1.4v1.27h-2.19v-13.63h2.3v5.02c.79-.88,1.89-1.3,3.14-1.3,2.87,0,4.98,1.97,4.98,5.02Zm-2.33,0c0-1.87-1.25-3.07-2.9-3.07s-2.92,1.19-2.92,3.07,1.27,3.07,2.92,3.07,2.9-1.19,2.9-3.07Z"/>
      <path class="cls-2" d="M804.35,510.01c0-2.94,2.2-5.02,5.22-5.02s5.24,2.08,5.24,5.02-2.19,5.03-5.24,5.03-5.22-2.09-5.22-5.03Zm8.14,0c0-1.87-1.25-3.07-2.92-3.07s-2.9,1.19-2.9,3.07,1.25,3.07,2.9,3.07,2.92-1.19,2.92-3.07Z"/>
      <path class="cls-2" d="M826.42,509.29v5.62h-2.3v-5.33c0-1.75-.86-2.59-2.33-2.59-1.63,0-2.74,.99-2.74,2.96v4.96h-2.3v-9.81h2.19v1.27c.75-.9,1.95-1.38,3.38-1.38,2.35,0,4.1,1.34,4.1,4.3Z"/>
      <path class="cls-2" d="M759.2,535.99l.88-1.75c.86,.57,2.19,.97,3.42,.97,1.45,0,2.06-.4,2.06-1.08,0-1.87-6.06-.11-6.06-4.02,0-1.86,1.67-3.07,4.32-3.07,1.3,0,2.79,.31,3.67,.85l-.88,1.75c-.94-.55-1.87-.74-2.81-.74-1.4,0-2.06,.46-2.06,1.1,0,1.98,6.06,.22,6.06,4.06,0,1.84-1.69,3.03-4.45,3.03-1.63,0-3.27-.48-4.15-1.1Z"/>
      <path class="cls-2" d="M769.05,532.06c0-2.94,2.2-5.02,5.22-5.02s5.24,2.08,5.24,5.02-2.19,5.03-5.24,5.03-5.22-2.09-5.22-5.03Zm8.14,0c0-1.87-1.25-3.07-2.92-3.07s-2.9,1.19-2.9,3.07,1.25,3.07,2.9,3.07,2.92-1.19,2.92-3.07Z"/>
      <path class="cls-2" d="M781.58,523.33h2.3v13.63h-2.3v-13.63Z"/>
      <path class="cls-2" d="M796.22,527.15v9.81h-2.19v-1.25c-.73,.9-1.89,1.38-3.16,1.38-2.52,0-4.23-1.38-4.23-4.34v-5.6h2.3v5.29c0,1.78,.85,2.63,2.3,2.63,1.6,0,2.68-.99,2.68-2.96v-4.96h2.3Z"/>
      <path class="cls-2" d="M804.99,536.43c-.55,.44-1.38,.66-2.2,.66-2.15,0-3.38-1.14-3.38-3.31v-4.72h-1.62v-1.84h1.62v-2.24h2.3v2.24h2.63v1.84h-2.63v4.67c0,.96,.48,1.47,1.36,1.47,.48,0,.94-.13,1.29-.4l.64,1.63Z"/>
      <path class="cls-2" d="M806.43,524.16c0-.77,.62-1.38,1.47-1.38s1.47,.57,1.47,1.32c0,.81-.61,1.43-1.47,1.43s-1.47-.61-1.47-1.38Zm.31,2.99h2.3v9.81h-2.3v-9.81Z"/>
      <path class="cls-2" d="M811.26,532.06c0-2.94,2.2-5.02,5.22-5.02s5.24,2.08,5.24,5.02-2.19,5.03-5.24,5.03-5.22-2.09-5.22-5.03Zm8.14,0c0-1.87-1.25-3.07-2.92-3.07s-2.9,1.19-2.9,3.07,1.25,3.07,2.9,3.07,2.92-1.19,2.92-3.07Z"/>
      <path class="cls-2" d="M833.32,531.34v5.62h-2.3v-5.33c0-1.75-.86-2.59-2.33-2.59-1.63,0-2.74,.99-2.74,2.96v4.96h-2.3v-9.81h2.19v1.27c.75-.9,1.95-1.38,3.38-1.38,2.35,0,4.1,1.34,4.1,4.3Z"/>
      <path class="cls-2" d="M835.05,535.99l.88-1.75c.86,.57,2.19,.97,3.42,.97,1.45,0,2.06-.4,2.06-1.08,0-1.87-6.06-.11-6.06-4.02,0-1.86,1.67-3.07,4.32-3.07,1.3,0,2.79,.31,3.67,.85l-.88,1.75c-.94-.55-1.87-.74-2.81-.74-1.4,0-2.06,.46-2.06,1.1,0,1.98,6.06,.22,6.06,4.06,0,1.84-1.69,3.03-4.45,3.03-1.64,0-3.27-.48-4.15-1.1Z"/>
    </g>
    <g class="cls-16">
      <path class="cls-33" d="M853.43,421.52c22.05-26.8,20.54-66.48-4.51-91.53-26.65-26.65-69.86-26.65-96.51,0"/>
      <path class="cls-10" d="M853.43,421.52c22.05-26.8,20.54-66.48-4.51-91.53-26.65-26.65-69.86-26.65-96.51,0"/>
      <path class="cls-33" d="M747.2,335.67c-22.05,26.8-20.54,66.48,4.51,91.53,26.65,26.65,69.86,26.65,96.51,0"/>
      <path class="cls-10" d="M747.2,335.67c-22.05,26.8-20.54,66.48,4.51,91.53,26.65,26.65,69.86,26.65,96.51,0"/>
    </g>
    <polygon class="cls-2" points="837.78 424.62 850.1 425.16 849.56 437.48 837.78 424.62"/>
    <polygon class="cls-2" points="762.36 332.46 750.04 331.92 750.58 319.61 762.36 332.46"/>
    <text class="cls-3" transform="translate(752.87 387.3)"><tspan class="cls-13" x="0" y="0">R</tspan><tspan class="cls-15" x="13.9" y="0">e</tspan><tspan class="cls-36" x="26.05" y="0">c</tspan><tspan class="cls-46" x="37.72" y="0">y</tspan><tspan class="cls-37" x="48.71" y="0">c</tspan><tspan class="cls-17" x="59.85" y="0">li</tspan><tspan class="cls-43" x="70.84" y="0">n</tspan><tspan x="83.82" y="0">g</tspan></text>
    <g class="cls-27">
      <g/>
      <g class="cls-18">
        <path class="cls-7" d="M554.38,392.55c0,1.88-1.54,3.4-3.44,3.4s-3.44-1.52-3.44-3.4,1.54-3.39,3.44-3.39,3.44,1.52,3.44,3.39Zm0,0c0,1.88-1.54,3.4-3.44,3.4s-3.44-1.52-3.44-3.4,1.54-3.39,3.44-3.39,3.44,1.52,3.44,3.39m0,0v-45.97m-6.88,45.97v-49.04m6.82,37.33l21.59,21.31c4.49,4.44,4.49,11.63,0,16.06l-8.15,8.05c-4.5,4.44-11.78,4.44-16.27,0l-24.38-24.06c-.19-.19-.27-.45-.24-.69,.02-.17,.1-.34,.24-.47l20.6-20.33m6.62,.14l21.59,21.31c4.49,4.44,4.49,11.63,0,16.06l-8.15,8.05c-4.5,4.44-11.78,4.44-16.27,0l-24.38-24.06c-.19-.19-.27-.45-.24-.69,.02-.17,.1-.34,.24-.47l20.6-20.33m21.61,66.69c11.99-11.41,19.45-27.42,19.45-45.16,0-34.64-28.45-62.72-63.55-62.72s-63.55,28.08-63.55,62.72,28.45,62.72,63.55,62.72v-31.54m-14.01-46.9l8.37,8.26c.59,.59,1.56,.59,2.16,0l6.14-6.06c.59-.59,.59-1.54,0-2.13l-8.37-8.26m-5.56-5.48l-8.22-8.11c-.29-.28-.68-.44-1.08-.44h-12.27c-1.36,.01-2.04,1.64-1.08,2.58l14.35,14.16"/>
        <path class="cls-8" d="M525.2,408.23s-7.4,13.01-7.4,17.9,3.31,7.24,7.4,7.24,7.4-2.34,7.4-7.24-7.4-17.9-7.4-17.9Z"/>
        <path class="cls-7" d="M473.93,412.37c-.91,.9-.91,2.35,0,3.25l2.28,2.25c.91,.9,2.38,.9,3.29,0l31.79-31.37-5.58-5.51-31.79,31.37Zm48.1-36.45c.91-.9,.91-2.35,0-3.25l-2.28-2.25c-.91-.9-2.38-.9-3.29,0l-2.39,2.36,5.58,5.51,2.39-2.36Z"/>
      </g>
    </g>
    <g>
      <path class="cls-5" d="M1096.13,377.45h15.04v17.17h-15.04v-17.17Zm-57.78,28.6h14.82v6.7h-14.82v-6.7Zm31.6,6.7h-15.21v-6.7h15.21v6.7Zm16.45,0h-14.87v-6.7h14.87v6.7Zm-18.46-78.42c-37.44,0-67.9,30.46-67.9,67.9s30.46,67.91,67.9,67.91c.44,0,.79-.35,.79-.79v-40.56h44.42c.38,0,.7-.26,.77-.63l6.57-32.59c.05-.23-.02-.47-.16-.66-.15-.18-.37-.29-.61-.29h-6.97v-17.95c0-.44-.35-.79-.79-.79h-15.83v-12.38c0-.44-.35-.79-.79-.79s-.79,.35-.79,.79v49.26h-6.57v-7.49c0-.44-.35-.79-.79-.79h-71.27c-.28,0-.54,.15-.68,.39-.14,.24-.15,.54-.01,.78l12.54,22.74c.14,.25,.4,.41,.69,.41h30.94c.44,0,.79-.35,.79-.79s-.35-.79-.79-.79h-30.48l-11.67-21.16h19.52v7.49c0,.44,.35,.79,.79,.79h57.78c.44,0,.79-.35,.79-.79v-17.34h22.62l-6.25,31.01h-44.57c-.44,0-.79,.36-.79,.79v40.56c-36.21-.42-65.53-30.01-65.53-66.32s29.75-66.32,66.32-66.32,66.33,29.75,66.33,66.32c0,19.53-8.55,37.98-23.46,50.62-.33,.28-.37,.78-.09,1.11,.28,.34,.78,.37,1.11,.09,15.26-12.94,24.02-31.83,24.02-51.82,0-37.44-30.46-67.9-67.91-67.9"/>
      <path class="cls-5" d="M1096.13,377.45h15.04v17.17h-15.04v-17.17Zm-57.78,28.6h14.82v6.7h-14.82v-6.7Zm31.6,6.7h-15.21v-6.7h15.21v6.7Zm16.45,0h-14.87v-6.7h14.87v6.7Zm-18.46-78.42c-37.44,0-67.9,30.46-67.9,67.9s30.46,67.91,67.9,67.91c.44,0,.79-.35,.79-.79v-40.56h44.42c.38,0,.7-.26,.77-.63l6.57-32.59c.05-.23-.02-.47-.16-.66-.15-.18-.37-.29-.61-.29h-6.97v-17.95c0-.44-.35-.79-.79-.79h-15.83v-12.38c0-.44-.35-.79-.79-.79s-.79,.35-.79,.79v49.26h-6.57v-7.49c0-.44-.35-.79-.79-.79h-71.27c-.28,0-.54,.15-.68,.39-.14,.24-.15,.54-.01,.78l12.54,22.74c.14,.25,.4,.41,.69,.41h30.94c.44,0,.79-.35,.79-.79s-.35-.79-.79-.79h-30.48l-11.67-21.16h19.52v7.49c0,.44,.35,.79,.79,.79h57.78c.44,0,.79-.35,.79-.79v-17.34h22.62l-6.25,31.01h-44.57c-.44,0-.79,.36-.79,.79v40.56c-36.21-.42-65.53-30.01-65.53-66.32s29.75-66.32,66.32-66.32,66.33,29.75,66.33,66.32c0,19.53-8.55,37.98-23.46,50.62-.33,.28-.37,.78-.09,1.11,.28,.34,.78,.37,1.11,.09,15.26-12.94,24.02-31.83,24.02-51.82,0-37.44-30.46-67.9-67.91-67.9Z"/>
    </g>
  </g>
</svg>