<?xml version="1.0" encoding="utf-8"?>
<!-- Generator: Adobe Illustrator 24.1.1, SVG Export Plug-In . SVG Version: 6.00 Build 0)  -->
<svg version="1.1" id="Livello_1" xmlns="http://www.w3.org/2000/svg" xmlns:xlink="http://www.w3.org/1999/xlink" x="0px" y="0px"
	 viewBox="0 0 186.24 121.5" style="enable-background:new 0 0 186.24 121.5;" xml:space="preserve">
<path fill="#ffffff" d="M73.9,86.68v-2.76h0.39c0.89,0,1.18,0.61,1.18,1.36C75.46,86.35,74.9,86.73,73.9,86.68 M73.98,82.21h-2.15
	v10.47h2.07v-4.32l0.46,0.03c1.92,0,3.18-1.12,3.18-3.08C77.53,81.94,74.42,82.21,73.98,82.21"/>
<path fill="#ffffff" d="M80.21,89.28l0.44-2.79l0.22-1.58h0.03l0.24,1.58l0.53,2.79H80.21z M79.88,82.21l-2.43,10.47h2.06l0.38-1.76
	h2.1l0.39,1.76h2.21l-2.51-10.47H79.88z"/>
<path fill="#ffffff" d="M87.47,90.82v-6.75c1.71,0,2.12,2.11,2.12,3.44C89.6,88.82,89.14,90.9,87.47,90.82 M86.97,82.21H85.4v10.47
	h1.85c3.26,0,4.41-2.17,4.41-5.15C91.67,81.69,87.33,82.21,86.97,82.21"/>
<path fill="#ffffff" d="M96.07,90.93c-1.38,0-1.47-2.65-1.47-3.48c0-0.93,0.1-3.49,1.47-3.49c1.37,0,1.47,2.55,1.47,3.49
	C97.54,88.28,97.44,90.93,96.07,90.93 M96.07,82.05c-1.85,0-3.68,1.47-3.68,5.4c0,3.93,1.83,5.4,3.68,5.4c1.85,0,3.68-1.47,3.68-5.4
	C99.75,83.52,97.91,82.05,96.07,82.05"/>
<path fill="#ffffff" d="M105.67,82.21l-1.26,5c-0.17,0.61-0.21,1.21-0.32,1.82h-0.03c-0.13-0.6-0.19-1.19-0.38-1.79l-1.25-5.03h-2.22
	l3.03,10.47h1.69l2.9-10.47H105.67z"/>
<path fill="#ffffff" d="M110.06,89.28l0.44-2.79l0.22-1.58h0.03l0.24,1.58l0.53,2.79H110.06z M109.73,82.21l-2.43,10.47h2.06l0.38-1.76
	h2.1l0.39,1.76h2.21l-2.51-10.47H109.73z"/>
<path fill="#ffffff" d="M38.94,60.19c1.11-0.75,2.27-2.14,2.27-4.04c0-3.68-3.12-4.66-7.02-4.66h-8.3v18.54h8.46
	c4.51,0,7.48-1.44,7.48-5.59C41.84,62.43,40.83,60.7,38.94,60.19 M31.58,55.81h2c1.2,0,2.33,0.03,2.33,1.47
	c0,1.08-0.83,1.62-1.96,1.62h-2.37V55.81z M34.06,65.7h-2.48v-3.43h1.81c1.81,0,3.14,0.1,3.14,1.72
	C36.54,65.39,35.46,65.7,34.06,65.7"/>
<polygon fill="#ffffff" points="50.45,62.79 57.62,62.79 57.62,58.46 50.45,58.46 50.45,55.81 58.92,55.81 58.92,51.48 44.76,51.48 
	44.76,70.02 59.27,70.02 59.27,65.7 50.45,65.7 "/>
<path fill="#ffffff" d="M69.54,51.48h-7.63v18.54h7.48c5.58,0,9.22-2.67,9.22-9.66C78.62,54.26,75.14,51.48,69.54,51.48 M68.82,65.7
	H67.6v-9.89h1.09c3.05,0,4.24,1.03,4.24,4.89C72.93,64.2,71.46,65.7,68.82,65.7"/>
<polygon fill="#ffffff" points="86.64,62.79 93.81,62.79 93.81,58.46 86.64,58.46 86.64,55.81 95.12,55.81 95.12,51.48 80.95,51.48 
	80.95,70.02 95.45,70.02 95.45,65.7 86.64,65.7 "/>
<path fill="#ffffff" d="M103.18,56.32c0-0.67,0.56-1.06,1.81-1.06c0.55,0,1.05,0.11,1.46,0.34c0.43,0.23,0.74,0.62,0.83,1.26h5.39
	c-0.41-3.24-2.6-5.87-7.43-5.87c-4.34,0-7.52,1.99-7.52,5.93c0,7.08,9.98,5.15,9.98,7.96c0,0.88-0.94,1.37-2.37,1.37
	c-0.56,0-1.15-0.16-1.61-0.47c-0.48-0.31-0.83-0.8-0.95-1.47h-5.45c0.13,3.35,3.11,6.2,7.69,6.2c4.79,0,8.13-2.09,8.13-6.39
	C113.16,57.38,103.18,59.1,103.18,56.32"/>
<path fill="#ffffff" d="M123.62,65.98c-2.9,0-3.44-2.44-3.44-5.05c0-3.58,1.22-5.41,3.21-5.41c1.79,0,2.92,1.11,3.09,3.04h5.41
	c-0.46-4.77-3.44-7.57-8.74-7.57c-4.86,0-8.67,3.74-8.67,9.74c0,6.03,3.47,9.79,9.22,9.79c4.58,0,7.8-2.88,8.3-7.68h-5.47
	C126.31,64.62,125.45,65.98,123.62,65.98"/>
<polygon fill="#ffffff" points="145.48,57.74 140.08,57.74 140.08,51.48 134.39,51.48 134.39,70.02 140.08,70.02 140.08,62.84 
	145.48,62.84 145.48,70.02 151.17,70.02 151.17,51.48 145.48,51.48 "/>
<rect x="154.66" y="51.48" fill="#ffffff" width="5.69" height="18.55"/>
<polygon fill="#ffffff" points="78.94,24.59 78.94,39.29 76.11,39.29 76.11,27.12 74.71,27.12 74.71,24.59 "/>
<path fill="#ffffff" d="M84.59,29.44c0,0.7,0.18,2.3,1.17,2.3c1.11,0,1.31-1.81,1.31-2.55c0-0.7-0.23-2.34-1.23-2.32
	C84.72,26.87,84.59,28.7,84.59,29.44 M83.79,39.29l2.81-5.75l-0.04-0.04c-0.55,0.49-1.05,0.82-1.83,0.82
	c-2.22,0-2.96-2.83-2.96-4.58c0-2.63,1.03-5.38,4.11-5.38c2.94,0,4.02,2.57,4.02,5.17c0,2.65-0.97,4.91-2.09,7.25l-1.21,2.51H83.79z
	"/>
<path fill="#ffffff" d="M95.19,31.94c0,0.96-0.14,4.93,1.31,4.93s1.31-3.98,1.31-4.93c0-0.95,0.14-4.93-1.31-4.93
	S95.19,30.98,95.19,31.94 M100.62,31.94c0,2.59-0.6,7.58-4.13,7.58s-4.13-4.99-4.13-7.58c0-2.59,0.61-7.58,4.13-7.58
	S100.62,29.34,100.62,31.94"/>
<path fill="#ffffff" d="M107.27,29.85c0.9,0,0.9-1.11,0.9-1.66c0-0.53-0.1-1.56-0.9-1.56c-0.7,0-0.8,1.01-0.8,1.54
	C106.47,28.74,106.54,29.85,107.27,29.85 M106.08,34.9c0,0.76,0.22,2.09,1.23,2.09c0.99,0,1.25-1.37,1.25-2.09
	c0-0.72-0.31-2.13-1.27-2.13C106.29,32.77,106.08,34.14,106.08,34.9 M105.65,31.33c-1.33-0.45-2.01-1.72-2.01-3.1
	c0-2.16,1.44-3.88,3.68-3.88c2.22,0,3.67,1.71,3.67,3.88c0,1.38-0.66,2.63-2.01,3.12v0.02c1.83,0.58,2.55,2.05,2.55,3.9
	c0,2.42-1.75,4.25-4.21,4.25c-2.46,0-4.23-1.83-4.23-4.25c0-1.89,0.72-3.29,2.55-3.9V31.33z"/>
<path fill="#ffffff" d="M49.92,44.92C56.38,27.34,73.26,14.8,93.08,14.8c19.82,0,36.71,12.54,43.16,30.13l6.99,0
	c-0.11-0.35-0.22-0.69-0.34-1.04l7.17-2.97c0,0,0.59-0.25,0.35-0.84l-2.13-5.14c0,0-0.25-0.6-0.84-0.35l-7.17,2.97
	c-1.02-2.07-2.18-4.07-3.45-5.98l6.16-4.73c0,0,0.51-0.39,0.12-0.9l-3.39-4.42c0,0-0.39-0.51-0.9-0.12l-6.16,4.73
	c-1.52-1.73-3.15-3.36-4.88-4.88l4.73-6.16c0,0,0.39-0.51-0.12-0.9l-4.42-3.39c0,0-0.51-0.39-0.9,0.12l-4.72,6.15
	c-1.91-1.28-3.9-2.44-5.97-3.46l2.97-7.16c0,0,0.25-0.59-0.35-0.84l-5.14-2.13c0,0-0.6-0.25-0.84,0.35l-2.96,7.15
	c-2.16-0.74-4.39-1.33-6.67-1.79l1.01-7.68c0,0,0.08-0.64-0.55-0.72L98.3,0.06c0,0-0.64-0.08-0.72,0.55L96.57,8.3
	c-1.15-0.07-2.31-0.11-3.49-0.11c-1.1,0-2.19,0.04-3.28,0.1l-1.02-7.72c0,0-0.08-0.64-0.72-0.55l-5.52,0.73c0,0-0.64,0.08-0.56,0.72
	l1.01,7.69c-2.28,0.44-4.51,1.03-6.68,1.76l-2.97-7.18c0,0-0.25-0.59-0.84-0.35l-5.14,2.13c0,0-0.59,0.25-0.35,0.84l2.97,7.17
	c-2.08,1.02-4.08,2.17-5.99,3.44l-4.74-6.17c0,0-0.39-0.51-0.9-0.12l-4.42,3.39c0,0-0.51,0.39-0.12,0.9l4.73,6.16
	c-1.74,1.51-3.37,3.14-4.9,4.87l-6.18-4.74c0,0-0.51-0.39-0.9,0.12l-3.39,4.42c0,0-0.39,0.51,0.12,0.9l6.16,4.72
	c-1.28,1.9-2.45,3.9-3.48,5.97L38.8,34.4c0,0-0.59-0.25-0.84,0.35l-2.13,5.14c0,0-0.25,0.59,0.35,0.84l7.16,2.97
	c-0.14,0.4-0.27,0.81-0.4,1.22L49.92,44.92z"/>
<path fill="#ffffff" d="M150.13,80.52l-7.22-2.99c0.11-0.32,0.21-0.64,0.31-0.96h-6.99c-6.44,17.6-23.34,30.15-43.17,30.15
	c-19.83,0-36.72-12.56-43.17-30.15h-6.99c0.12,0.38,0.24,0.76,0.37,1.14l-7.16,2.96c0,0-0.6,0.25-0.35,0.84l2.13,5.14
	c0,0,0.25,0.59,0.84,0.35l7.16-2.97c1.03,2.07,2.18,4.07,3.46,5.97l-6.16,4.72c0,0-0.51,0.39-0.12,0.9l3.39,4.42
	c0,0,0.39,0.51,0.9,0.12l6.17-4.73c1.52,1.73,3.15,3.36,4.88,4.88l-4.73,6.17c0,0-0.39,0.51,0.12,0.9l4.42,3.39
	c0,0,0.51,0.39,0.9-0.12l4.73-6.17c1.91,1.28,3.9,2.43,5.97,3.45l-2.97,7.17c0,0-0.24,0.59,0.35,0.84l5.14,2.13
	c0,0,0.59,0.25,0.84-0.35l2.97-7.18c2.16,0.73,4.39,1.33,6.67,1.78l-1.01,7.71c0,0-0.08,0.64,0.55,0.72l5.52,0.73
	c0,0,0.64,0.08,0.72-0.55l1.01-7.72c1.13,0.07,2.27,0.11,3.42,0.11c1.22,0,2.43-0.04,3.62-0.12l1.02,7.73c0,0,0.08,0.64,0.72,0.55
	l5.52-0.73c0,0,0.64-0.08,0.55-0.72l-1.02-7.75c2.28-0.46,4.5-1.06,6.66-1.8l2.98,7.2c0,0,0.24,0.59,0.84,0.35l5.14-2.13
	c0,0,0.6-0.25,0.35-0.84l-2.99-7.22c2.07-1.03,4.06-2.19,5.96-3.47l4.75,6.19c0,0,0.39,0.51,0.9,0.12l4.42-3.39
	c0,0,0.51-0.39,0.12-0.9l-4.76-6.21c1.72-1.52,3.35-3.16,4.86-4.89l6.19,4.75c0,0,0.51,0.39,0.9-0.12l3.39-4.42
	c0,0,0.39-0.51-0.12-0.9l-6.2-4.76c1.27-1.91,2.42-3.91,3.44-5.98l7.2,2.98c0,0,0.59,0.24,0.84-0.35l2.13-5.14
	C150.47,81.36,150.72,80.76,150.13,80.52"/>
<path fill="#ffffff" d="M173.21,70.99c-0.64,0-1.27-0.06-1.88-0.17c-0.02,0.15-0.04,0.31-0.06,0.46c-0.05,0.35-0.09,0.7-0.15,1.05
	c-0.03,0.18-0.06,0.37-0.09,0.56c-0.05,0.3-0.09,0.6-0.14,0.89h-32.55H47.89H15.35c-0.05-0.3-0.1-0.6-0.14-0.89
	c-0.03-0.18-0.06-0.37-0.09-0.56c-0.05-0.35-0.1-0.7-0.15-1.05c-0.02-0.15-0.04-0.31-0.06-0.46c-0.61,0.11-1.23,0.17-1.88,0.17
	c-5.65,0-10.24-4.58-10.24-10.24c0-5.65,4.58-10.24,10.24-10.24c0.64,0,1.27,0.06,1.88,0.17c0.02-0.16,0.04-0.32,0.07-0.48
	c0.05-0.35,0.1-0.7,0.15-1.05c0.03-0.18,0.06-0.37,0.09-0.55c0.05-0.3,0.09-0.59,0.14-0.89h32.54h90.46h32.54
	c0.05,0.29,0.09,0.59,0.14,0.89c0.03,0.18,0.06,0.37,0.08,0.55c0.05,0.35,0.1,0.7,0.15,1.05c0.02,0.16,0.04,0.32,0.07,0.48
	c0.61-0.11,1.23-0.17,1.88-0.17c5.65,0,10.24,4.58,10.24,10.24C183.45,66.41,178.86,70.99,173.21,70.99 M186.24,60.75
	c0-7.05-5.59-12.79-12.58-13.03c-0.15-0.92-0.32-1.86-0.5-2.77v-0.04h-2.79c0,0,0,0,0,0h-32.03H47.89H15.86c0,0,0,0,0,0h-2.79v0.04
	c-0.18,0.91-0.35,1.85-0.49,2.77C5.59,47.97,0,53.71,0,60.75c0,7.13,5.73,12.93,12.84,13.03h-0.25c0.15,0.93,0.31,1.85,0.49,2.76
	v0.02h0c0,0.01,0,0.01,0,0.02h34.81h90.46h34.81c0-0.01,0-0.01,0-0.02h0v-0.02c0.18-0.92,0.35-1.84,0.49-2.76h-0.25
	C180.52,73.68,186.24,67.89,186.24,60.75"/>
</svg>
